# xmcd
#
# Track frame offsets:
#	150
#	13782
#	25045
#	40397
#	57548
#	71414
#	82607
#	99228
#	116612
#	128186
#	141643
#	157473
#	170617
#	183573
#	198052
#	213906
#	227100
#	243248
#	258183
#	273383
#
# Disc length: 3813 seconds
#
# Revision: 1
# Processed by: cddbd v1.5.2PL0 Copyright (c) Steve Scherf et al.
# Submitted via: audiograbber 1.83.01
#
DISCID=1a0ee314
DTITLE=Mannick - cd.1 - d' Amours et de Chagrins
DYEAR=2007
DGENRE=Chanson
TTITLE0=Je t' aime
TTITLE1=De quel bleu
TTITLE2=Ai-je vraiment le mal de toi
TTITLE3=Faut-il un peu te perdre
TTITLE4=Je CONNAIS des BATEAUX
TTITLE5=Mes épousailles
TTITLE6=Le bleu de nos sregards
TTITLE7=Héloïse et Abélard
TTITLE8=Tu dis que tu aimes
TTITLE9=Comme Ulysse
TTITLE10=Es-tu mon impossisble Amour
TTITLE11=Je t'Aime à l'imparfait
TTITLE12=Crois-tu qu'un goéland peut oublier la mer
TTITLE13=Tu viens d' Atlantide
TTITLE14=Au fil de toi
TTITLE15=Du coté de San-Francisco
TTITLE16=L' amour à l'infini
TTITLE17=Ce foutu téléphone
TTITLE18=Tout me parle de toi
TTITLE19=Te voila de retour
EXTD=
EXTT0=
EXTT1=
EXTT2=
EXTT3=
EXTT4=
EXTT5=
EXTT6=
EXTT7=
EXTT8=
EXTT9=
EXTT10=
EXTT11=
EXTT12=
EXTT13=
EXTT14=
EXTT15=
EXTT16=
EXTT17=
EXTT18=
EXTT19=
PLAYORDER=
